<?xml version="1.0" encoding="utf-8"?>
<!-- Generator: Adobe Illustrator 17.0.0, SVG Export Plug-In . SVG Version: 6.00 Build 0)  -->
<!DOCTYPE svg PUBLIC "-//W3C//DTD SVG 1.1//EN" "http://www.w3.org/Graphics/SVG/1.1/DTD/svg11.dtd">
<svg version="1.1" id="Layer_1" xmlns="http://www.w3.org/2000/svg" xmlns:xlink="http://www.w3.org/1999/xlink" x="0px" y="0px"
	 width="231.333px" height="208px" viewBox="0 0 231.333 208" enable-background="new 0 0 231.333 208" xml:space="preserve">
<g>
	<text transform="matrix(1 0 0 1 32.9246 27.484)" fill="#FFFFFF" font-family="'Montserrat'" font-size="34.8014">Meu Blog</text>
	<g>
		<circle fill="#F04923" cx="116.569" cy="129.475" r="78.805"/>
		<polygon fill="#C2B59B" points="116.569,129.475 116.569,129.475 116.569,129.475 		"/>
		<g>
			<path fill="#37474F" d="M173.333,94.663c0-2.207-1.789-3.996-3.996-3.996H65.329c-2.207,0-3.996,1.789-3.996,3.996v50.008
				c0,2.207,1.789,3.996,3.996,3.996h104.008c2.207,0,3.996-1.789,3.996-3.996V94.663z"/>
			<path fill="#212121" d="M168.363,92.772H89.211v52.702h79.153c0.875,0,1.584-0.709,1.584-1.584v0V94.356v0
				C169.947,93.481,169.238,92.772,168.363,92.772z"/>
			<path fill="#016064" d="M64.6,92.772c-0.875,0-1.584,0.709-1.584,1.584v49.533c0,0.875,0.709,1.584,1.584,1.584h24.611V92.772
				H64.6z"/>
			<rect x="92.027" y="95.112" fill="#F36E21" width="73.058" height="16.069"/>
			<rect x="92.027" y="112.838" fill="#27AAE1" width="31.145" height="29.322"/>
			<rect x="126.651" y="112.838" fill="#66BB6A" width="38.434" height="29.322"/>
			<g id="XMLID_3_">
				<g>
					<path fill="#37474F" d="M103.937,150.838h25.304l1.158,5.424c0.882,4.306,5.201,7.483,9.597,7.483h1.315
						c4.396,0,7.993,3.203,7.993,4.86H83.874c0-1.657,3.597-4.86,7.992-4.86h1.317c4.396,0,8.714-3.176,9.597-7.483L103.937,150.838
						z"/>
					<polygon fill="#263238" points="129.241,150.838 103.937,150.838 104.576,147.841 128.601,147.841 					"/>
				</g>
				<g>
				</g>
			</g>
		</g>
	</g>
</g>
</svg>
