<?xml version="1.0" encoding="utf-8"?>
<!-- Generator: Adobe Illustrator 17.0.0, SVG Export Plug-In . SVG Version: 6.00 Build 0)  -->
<!DOCTYPE svg PUBLIC "-//W3C//DTD SVG 1.1//EN" "http://www.w3.org/Graphics/SVG/1.1/DTD/svg11.dtd">
<svg version="1.1" id="Layer_1" xmlns="http://www.w3.org/2000/svg" xmlns:xlink="http://www.w3.org/1999/xlink" x="0px" y="0px"
	 width="231.333px" height="208px" viewBox="0 0 231.333 208" enable-background="new 0 0 231.333 208" xml:space="preserve">
<g>
	<text transform="matrix(1 0 0 1 23.9261 27.2278)" fill="#FFFFFF" font-family="'Montserrat'" font-size="34.8014">Meu Email</text>
	<g>
		<circle fill="#F04923" cx="116.565" cy="129.001" r="78.999"/>
		<g>
			<polygon fill="#37474F" points="163.425,113.046 155.804,118.043 155.799,118.045 116.565,143.766 131.622,153.637 
				163.425,174.488 163.49,174.488 163.49,113.046 			"/>
			<polygon fill="#BDBDBD" points="155.799,118.045 116.565,143.766 77.342,118.052 116.565,139.382 			"/>
			<polygon fill="#455B65" points="131.622,153.637 116.565,143.766 77.342,118.052 77.327,118.043 77.327,118.04 69.708,113.046 
				69.641,113.046 69.641,174.488 69.708,174.488 163.425,174.488 			"/>
			<path fill="#F5F5F5" d="M150.627,93.384h-17.121H99.624H82.503c-2.847,0-5.177,2.329-5.177,5.177v9.444v10.036v0.002l0.016,0.009
				l39.223,21.33l39.234-21.337l0.004-0.002v-10.038v-9.444C155.804,95.714,153.474,93.384,150.627,93.384z"/>
			<g>
				<path fill="#263238" d="M160.463,111.061c-0.054-0.038-0.11-0.077-0.171-0.115l-4.488-2.942v10.038l7.621-4.997h0.065
					L160.463,111.061z"/>
				<path fill="#263238" d="M119.644,84.3c-1.729-1.049-4.427-1.049-6.158,0c-0.041,0.027-0.083,0.052-0.126,0.079l-13.736,9.005
					h33.882l-13.736-9.005C119.73,84.352,119.687,84.327,119.644,84.3z"/>
				<path fill="#263238" d="M72.668,111.061l-3.027,1.985h0.068l7.619,4.994v-10.036l-4.488,2.942
					C72.78,110.984,72.722,111.023,72.668,111.061z"/>
			</g>
		</g>
	</g>
</g>
</svg>
