<?xml version="1.0" encoding="utf-8"?>
<!-- Generator: Adobe Illustrator 17.0.0, SVG Export Plug-In . SVG Version: 6.00 Build 0)  -->
<!DOCTYPE svg PUBLIC "-//W3C//DTD SVG 1.1//EN" "http://www.w3.org/Graphics/SVG/1.1/DTD/svg11.dtd">
<svg version="1.1" id="Layer_1" xmlns="http://www.w3.org/2000/svg" xmlns:xlink="http://www.w3.org/1999/xlink" x="0px" y="0px"
	 width="231.333px" height="208px" viewBox="0 0 231.333 208" enable-background="new 0 0 231.333 208" xml:space="preserve">
<g>
	<text transform="matrix(1 0 0 1 46.0171 27.8531)" fill="#FFFFFF" font-family="'Montserrat'" font-size="34.8014">Meu Git</text>
	<path fill="#F04923" d="M115.422,50.493c-43.81,0-79.331,35.521-79.331,79.331c0,35.056,22.728,64.786,54.254,75.273
		c3.966,0.726,5.413-1.724,5.413-3.815c0-1.888-0.073-8.144-0.111-14.768c-22.06,4.793-26.723-9.355-26.723-9.355
		c-3.612-9.161-8.808-11.601-8.808-11.601c-7.21-4.919,0.547-4.823,0.547-4.823c7.965,0.552,12.158,8.173,12.158,8.173
		c7.079,12.124,18.574,8.619,23.087,6.585c0.721-5.113,2.774-8.619,5.036-10.594c-17.61-2.005-36.136-8.812-36.136-39.21
		c0-8.667,3.094-15.736,8.159-21.29c-0.809-2.014-3.54-10.086,0.784-21.004c0,0,6.653-2.13,21.818,8.135
		c6.324-1.767,13.107-2.639,19.852-2.668c6.74,0.029,13.528,0.91,19.862,2.678c15.136-10.275,21.799-8.135,21.799-8.135
		c4.338,10.928,1.608,18.99,0.794,20.995c5.084,5.554,8.154,12.623,8.154,21.29c0,30.475-18.554,37.186-36.228,39.152
		c2.857,2.46,5.384,7.282,5.384,14.681c0,10.604-0.107,19.155-0.107,21.77c0,2.111,1.443,4.58,5.462,3.806
		c31.502-10.507,54.211-40.237,54.211-75.273C194.753,86.014,159.233,50.493,115.422,50.493z"/>
</g>
</svg>
