<?xml version="1.0" encoding="utf-8"?>
<!-- Generator: Adobe Illustrator 17.0.0, SVG Export Plug-In . SVG Version: 6.00 Build 0)  -->
<!DOCTYPE svg PUBLIC "-//W3C//DTD SVG 1.1//EN" "http://www.w3.org/Graphics/SVG/1.1/DTD/svg11.dtd">
<svg version="1.1" id="Layer_1" xmlns="http://www.w3.org/2000/svg" xmlns:xlink="http://www.w3.org/1999/xlink" x="0px" y="0px"
	 width="1366px" height="768px" viewBox="0 0 1366 768" enable-background="new 0 0 1366 768" xml:space="preserve">
<g>
	<g>
		<polygon fill="#323330" points="1020.675,355.389 1208.677,150 1108.337,150 894,374.392 894,150 893.666,150 816,150 816,619 
			893.666,619 894,619 894,482.76 962.338,411.734 1117.681,619 1211.353,619 		"/>
		<polygon fill="#171815" points="817.439,150.253 816.902,254.404 804.449,278.579 817.384,150.792 		"/>
		<polygon fill="#323330" points="773.444,150 632.255,443.694 491.065,150 447.211,150 363,150 363,619 453,619 453,248.603 
			450.247,252.617 609.482,580 653.665,580 804.949,277.69 817.439,150 		"/>
		<path fill="#323330" d="M368.235,216.356v241.529c0,3.099-0.094,6.151-0.282,9.062V216.356H368.235z"/>
		<path fill="#171815" d="M363.274,467.909v136.159c-3.661,1.647-7.373,3.106-11.189,4.424l11.086-138.654h-0.052
			C363.171,469.18,363.222,468.568,363.274,467.909z"/>
		<polygon fill="#171815" points="363.939,150.133 363.939,221.033 355.519,221.033 		"/>
		<polygon fill="#323330" points="364.274,150.133 357.184,221.033 216.042,221.033 216.042,150.133 		"/>
		<path fill="#323330" d="M342.816,521.107c12.537-11.973,19.627-29.017,21.317-51.273h0.047l-10.095,138.325
			c-17.561,6.667-37.046,9.954-58.41,9.954c-54.419,0-100.809-19.157-139.17-57.565l44.794-62.213
			c30.332,29.017,60.007,43.479,89.024,43.479C310.841,541.814,328.354,534.911,342.816,521.107z"/>
	</g>
</g>
</svg>
