<?xml version="1.0" encoding="utf-8"?>
<!-- Generator: Adobe Illustrator 17.0.0, SVG Export Plug-In . SVG Version: 6.00 Build 0)  -->
<!DOCTYPE svg PUBLIC "-//W3C//DTD SVG 1.1//EN" "http://www.w3.org/Graphics/SVG/1.1/DTD/svg11.dtd">
<svg version="1.1" id="Layer_1" xmlns="http://www.w3.org/2000/svg" xmlns:xlink="http://www.w3.org/1999/xlink" x="0px" y="0px"
	 width="231.333px" height="208px" viewBox="0 0 231.333 208" enable-background="new 0 0 231.333 208" xml:space="preserve">
<g>
	<text transform="matrix(1 0 0 1 40.1049 27.5505)" fill="#FFFFFF" font-family="'Montserrat'" font-size="34.8014">Meu Lab</text>
	<g>
		<circle fill="#F04923" cx="115.727" cy="129.21" r="78.79"/>
		<g>
			<path fill="#FAFBFB" d="M120.133,135.766c-13.055-0.564-23.467-11.326-23.467-24.52c0-13.556,10.989-24.545,24.545-24.545v-8.182
				c-18.074,0-32.726,14.652-32.726,32.726c0,14.049,8.853,26.028,21.284,30.668v15.906l11.887,0.025v-22.055L120.133,135.766z"/>
			<path fill="#212121" d="M128.444,180.256c-3.717,0-6.759-3.041-6.759-6.759v-19.565c0-3.717-2.681-6.759-5.958-6.759
				s-5.958,3.041-5.958,6.759v19.565c0,3.717-3.041,6.759-6.759,6.759H85.046c-3.717,0-6.759,2.721-6.759,6.047
				c0,3.326,3.041,6.047,6.759,6.047h61.362c3.717,0,6.759-2.721,6.759-6.047c0-3.326-3.041-6.047-6.759-6.047H128.444z"/>
			<ellipse fill="#434343" cx="115.727" cy="153.263" rx="1.808" ry="1.857"/>
			<g>
				<path fill="#E0E0E0" d="M133.128,67.492v0.889h-3.202v-2.312h1.779C132.488,66.069,133.128,66.709,133.128,67.492z"/>
				<path fill="#FAFBFB" d="M129.926,66.069v2.312h-3.201v-0.889c0-0.783,0.64-1.423,1.423-1.423H129.926z"/>
				<g>
					<path fill="#212121" d="M121.211,133.478c-12.279,0-22.233-9.954-22.233-22.233s9.954-22.233,22.233-22.233v-2.312
						c-13.556,0-24.545,10.989-24.545,24.545c0,13.556,10.989,24.545,24.545,24.545h31.126v-2.312H121.211z"/>
					<path fill="#434343" d="M129.215,90.614c0,1.272-1.04,2.312-2.312,2.312h-8.537c-1.272,0-2.312-1.04-2.312-2.312V77.149
						c0-1.272,1.04-2.312,2.312-2.312h8.537c1.272,0,2.312,1.04,2.312,2.312V90.614z"/>
					<path fill="#E0E0E0" d="M133.128,113.284v4.688c0,0.783-0.64,1.423-1.423,1.423h-1.779v-6.111H133.128z"/>
					<path fill="#434343" d="M133.306,68.381h-0.178h-3.202v2.312v40.278v2.312h3.202h0.178c0.783,0,1.423-0.64,1.423-1.423V69.804
						C134.729,69.022,134.088,68.381,133.306,68.381z"/>
					<path fill="#FAFBFB" d="M129.926,113.284v6.111h-1.779c-0.783,0-1.423-0.64-1.423-1.423v-4.688H129.926z"/>
					<path fill="#616262" d="M126.725,68.381h-0.178c-0.783,0-1.423,0.64-1.423,1.423v42.057c0,0.783,0.64,1.423,1.423,1.423h0.178
						h3.201v-2.312V70.693v-2.312H126.725z"/>
					<circle fill="#434343" cx="123.286" cy="81.899" r="4.743"/>
					<circle fill="#616262" cx="123.286" cy="81.899" r="1.364"/>
				</g>
			</g>
		</g>
	</g>
</g>
</svg>
